<svg id="Layer_2" data-name="Layer 2" xmlns="http://www.w3.org/2000/svg" viewBox="0 0 816.221 566.474" style="width: 100%; height: 100%;">
  <g id="Layer_1-2" data-name="Layer 1">
    <g>
      <g>
        <polygon points="70.006 565.34 35.009 565.34 29.45 449.902 75.565 449.902 70.006 565.34" fill="#fff" stroke="#b7b7b7" stroke-linecap="round" stroke-linejoin="round" stroke-width="1.5"></polygon>
        <path d="m55.77,449.902s1.958-56.557,41.765-74.829c0,0,1.631,12.725-9.136,23.493-10.768,10.768-12.194,11.764-12.834,23.493-.489,8.973-7.899,11.429-11.964,11.094-1.364-.112-5.441-.601-5.441-.601" fill="#fff" stroke="#b7b7b7" stroke-linecap="round" stroke-linejoin="round" stroke-width="1.5"></path>
        <path d="m49.16,450.311s-1.345-23.292-1.972-31.044c-1.728-21.354-14.008-55.127-46.425-72.031,0,0-.821,12.803,10.607,22.866,11.428,10.063,13.553,10.909,14.297,22.632.745,11.723,12.643,10.313,12.643,10.313l5.757-.615s1.833,5.091,3.12,16.834" fill="#fff" stroke="#b7b7b7" stroke-linecap="round" stroke-linejoin="round" stroke-width="1.5"></path>
        <path d="m52.508,449.902c0-3.915.87-80.92,15.662-109.633" fill="none" stroke="#b7b7b7" stroke-linecap="round" stroke-linejoin="round" stroke-width="1.5"></path>
        <circle cx="68.169" cy="341.581" r="5.656" fill="#fff" stroke="#b7b7b7" stroke-linecap="round" stroke-linejoin="round" stroke-width="1.5"></circle>
      </g>
      <g>
        <g>
          <rect x="298.699" y=".75" width="205.738" height="254.444" transform="translate(803.136 255.944) rotate(180)" fill="#fff" stroke="#b7b7b7" stroke-linecap="round" stroke-linejoin="round" stroke-width="1.5"></rect>
          <line x1="401.568" y1="255.194" x2="401.568" y2=".75" fill="#fff" stroke="#b7b7b7" stroke-linecap="round" stroke-linejoin="round" stroke-width="1.5"></line>
          <line x1="298.699" y1="175.968" x2="502.487" y2="175.968" fill="#fff" stroke="#b7b7b7" stroke-linecap="round" stroke-linejoin="round" stroke-width="1.5"></line>
        </g>
        <line x1="436.755" y1="193.517" x2="477.486" y2="99.994" fill="#fff" stroke="#b7b7b7" stroke-linecap="round" stroke-linejoin="round" stroke-width="1.5"></line>
        <line x1="452.487" y1="97" x2="472.705" y2="50.365" fill="#fff" stroke="#b7b7b7" stroke-linecap="round" stroke-linejoin="round" stroke-width="1.5"></line>
      </g>
      <g>
        <path d="m307.678,23.543H126.559c-23.96,0-43.384,19.424-43.384,43.384v455.413c0,23.96,19.424,43.384,43.384,43.384h181.119c23.96,0,43.384-19.424,43.384-43.384V66.927c0-23.96-19.424-43.384-43.384-43.384Zm30.096,494.497c0,17.934-14.538,32.472-32.472,32.472h-176.367c-17.934,0-32.472-14.538-32.472-32.472V70.422c0-17.934,14.538-32.472,32.472-32.472h46.921v7.108c0,6.233,5.053,11.286,11.286,11.286h59.953c6.233,0,11.286-5.053,11.286-11.286v-7.108h46.913c17.938,0,32.48,14.542,32.48,32.48v447.61Z" fill="#050607" stroke="#050607" stroke-linecap="round" stroke-linejoin="round" stroke-width="1.5"></path>
        <rect x="93.69" y="31.556" width="254.662" height="526.887" rx="40.771" ry="40.771" fill="#fff"></rect>
        <path d="m312.678,23.543h-181.119c-23.96,0-43.384,19.424-43.384,43.384v455.413c0,23.96,19.424,43.384,43.384,43.384h181.119c23.96,0,43.384-19.424,43.384-43.384V66.927c0-23.96-19.424-43.384-43.384-43.384Zm30.096,494.497c0,17.934-14.538,32.472-32.472,32.472h-176.367c-17.934,0-32.472-14.538-32.472-32.472V70.422c0-17.934,14.538-32.472,32.472-32.472h46.921v7.108c0,6.233,5.053,11.286,11.286,11.286h59.953c6.233,0,11.286-5.053,11.286-11.286v-7.108h46.913c17.938,0,32.48,14.542,32.48,32.48v447.61Z" fill="#fff" stroke="#050607" stroke-linecap="round" stroke-linejoin="round" stroke-width="1.5"></path>
      </g>
      <g>
        <path d="m285.236,318.878c0-.438-.356-.794-.794-.794h-117.685s-6.009-34.202-6.009-34.202c-.068-.38-.396-.656-.782-.656h-23.023c-.396.027-.714.345-.741.741-.014.212.055.417.194.577.14.16.334.256.563.271h22.34l17.063,97.118c-.032.096-.048.2-.041.307.011.16.079.297.168.416l6.518,37.1c.068.379.396.655.782.656h4.815c-3.091,1.246-5.281,4.271-5.281,7.803,0,4.64,3.774,8.414,8.414,8.414s8.414-3.774,8.414-8.414c0-3.532-2.19-6.557-5.281-7.803h49.495c-3.026,1.276-5.155,4.272-5.155,7.756,0,4.639,3.775,8.414,8.415,8.414,4.639,0,8.414-3.775,8.414-8.414,0-2.248-.875-4.36-2.464-5.949-.782-.782-1.692-1.39-2.682-1.807h5.596c.396-.027.714-.345.741-.741.029-.438-.303-.818-.757-.848h-72.016l-6.297-35.843h88.576c.354,0,.668-.239.765-.58l5.919-21.161c.144-.134.242-.317.256-.525.006-.092-.01-.181-.034-.267l11.567-41.354c.02-.07.03-.142.03-.215Zm-37.613,102.466c3.764,0,6.825,3.062,6.825,6.825s-3.062,6.825-6.826,6.825-6.825-3.062-6.825-6.825c.004-3.76,3.065-6.821,6.825-6.826Zm-55.886-.203v.249h0c3.763,0,6.825,3.063,6.825,6.826s-3.062,6.825-6.826,6.825-6.825-3.062-6.825-6.826c.004-3.76,3.066-6.822,6.826-6.826v-.25s0,0,0,0h0s0,0,0,0Zm31.102-39.749v-19.937s25.628,0,25.628,0l-3.458,19.937h-22.17Zm-21.755,0l-3.458-19.937h23.625v19.937h-20.166Zm-7.172-41.344h27.338v19.819h-23.9s-3.438-19.819-3.438-19.819Zm28.926,0h29.342l-3.438,19.818h-25.904s0-19.818,0-19.818Zm32.852-20.236l-3.235,18.647h-29.617s0-18.53,0-18.53c-.006-.091-.032-.177-.067-.257h32.973c-.018.047-.046.089-.055.14Zm-34.44.135v18.513h-27.614s-3.259-18.787-3.259-18.787h30.948c-.038.085-.068.175-.075.275Zm-28.95,20.101l3.438,19.819h-21.641s-3.482-19.819-3.482-19.819h21.685Zm58.054,19.818l3.438-19.818h23.903l-5.543,19.818h-21.798Zm3.713-21.407l3.188-18.377c.024-.145-.005-.282-.055-.411h26.194l-5.255,18.787h-24.072Zm-62.043,0h-21.689s-3.301-18.788-3.301-18.788h21.731l3.259,18.788Zm-17.649,22.995h21.638l3.458,19.937h-21.593s-3.503-19.937-3.503-19.937Zm75.703,0h21.629l-5.576,19.937h-19.511s3.458-19.937,3.458-19.937Z"></path>
        <g>
          <circle cx="284.986" cy="310.133" r="22.827" fill="#050607" stroke="#000" stroke-linecap="round" stroke-linejoin="round" stroke-width="1.5"></circle>
          <polyline points="271.512 310.506 281.096 319.476 298.838 301.233" fill="none" stroke="#fff" stroke-linecap="round" stroke-linejoin="round" stroke-width="1.5"></polyline>
        </g>
        <g>
          <polygon points="165.882 143.525 181.541 135.819 180.225 152.909 165.882 143.525" fill="#fff" stroke="#000" stroke-linecap="round" stroke-linejoin="round" stroke-width="1.5"></polygon>
          <path d="m230.722,136.508l-3.307,23.956-14.947-2.061,17.499,35.558-47.357,23.306-17.567-35.697-7.62,13.339-20.999-11.995,12.493-21.71c2.145-3.728,5.352-6.731,9.213-8.632l9.614-4.731,10,.025,5.939-7.869,9.918-4.881c3.887-1.913,8.256-2.618,12.548-2.023l24.574,3.414Z" fill="#fff" stroke="#000" stroke-linecap="round" stroke-linejoin="round" stroke-width="1.5"></path>
          <g>
            <polygon points="165.882 143.525 163.595 149.909 175.294 158.514 177.743 147.866 165.882 143.525" fill="#fff" stroke="#000" stroke-linecap="round" stroke-linejoin="round" stroke-width="1.5"></polygon>
            <polygon points="181.541 135.819 187.994 137.902 187.675 152.421 177.743 147.866 181.541 135.819" fill="#fff" stroke="#000" stroke-linecap="round" stroke-linejoin="round" stroke-width="1.5"></polygon>
          </g>
          <line x1="177.743" y1="147.866" x2="206.188" y2="205.664" fill="#fff" stroke="#000" stroke-linecap="round" stroke-linejoin="round" stroke-width="1.5"></line>
          <g>
            <circle cx="187.238" cy="158.555" r=".899"></circle>
            <circle cx="191.084" cy="166.37" r=".899"></circle>
            <circle cx="194.929" cy="174.185" r=".899"></circle>
            <circle cx="198.775" cy="181.999" r=".899"></circle>
            <circle cx="202.621" cy="189.814" r=".899"></circle>
            <circle cx="206.467" cy="197.629" r=".899"></circle>
          </g>
        </g>
        <g>
          <polygon points="282.116 269.519 258.068 258.34 264.638 236.623 252.478 255.742 228.222 244.466 251.796 206.303 296.096 226.897 282.116 269.519" fill="#fff" stroke="#000" stroke-linecap="round" stroke-linejoin="round" stroke-width="1.5"></polygon>
          <line x1="249.949" y1="210.277" x2="294.249" y2="230.871" fill="#fff" stroke="#000" stroke-linecap="round" stroke-linejoin="round" stroke-width="1.5"></line>
          <rect x="267.485" y="216.396" width="11.075" height="4.382" transform="translate(117.588 -94.721) rotate(24.932)" fill="#fff" stroke="#000" stroke-linecap="round" stroke-linejoin="round" stroke-width="1.5"></rect>
        </g>
      </g>
      <g>
        <path d="m434.659,565.069c-32.366.536-60.275-23.922-59.77-58.046.215-14.49,2.062-31.572,12.397-47.789,19.976-31.343,68.784-45.124,92.014-75.445,64.506-84.196,149.245-142.358,223.061-111.885,103.667,42.796,123.723,148.635,108.658,216.919-9.502,43.071-41.656,75.559-83.593,76.254l-292.768-.009Z" fill="#fff" stroke="#000" stroke-linecap="round" stroke-linejoin="round" stroke-width="1.5"></path>
        <path d="m630.319,465.578s25.758-34.406,87.253-27.359" fill="#fff" stroke="#000" stroke-linecap="round" stroke-linejoin="round" stroke-width="1.5"></path>
        <line x1="445.994" y1="565.07" x2="4.017" y2="565.07" fill="#050607" stroke="#000" stroke-linecap="round" stroke-linejoin="round" stroke-width="1.5"></line>
        <circle id="h_1" cx="643.943" cy="139.479" r="17.882" fill="#050607" stroke="#000" stroke-linecap="round" stroke-linejoin="round" stroke-width="1.5"></circle>
        <path id="h_1-2" data-name="h_1" d="m565.413,248.68s9.1-4.409,8.254-16.815c-.846-12.405-7.546-14.84.303-31.389,4.662-9.83,9.464-9.171,8.79-21.311-1.158-20.85,16.482-38.676,36.962-38.64,20.254.036,33.979,13.79,38.392,33.871.087.394.146.793.181,1.194.226,2.587,1.711,14.125,10.521,19.771,9.959,6.382,9.608,15.167,8.412,22.883s-1.658,13.198,8.521,20.033c3.272,2.197,7.264,4.84,9.211,10.366,1.985,5.635-2.041,12.647-7.781,14.303-18.576,5.36-116.416,10.839-125.087,2.168-3.741-3.741-3.403-11.676,3.32-16.435Z" fill="#050607" stroke="#000" stroke-linecap="round" stroke-linejoin="round" stroke-width="1.5"></path>
        <path id="h_1_h" d="m641.636,199.6c4.483-.069,8.052-3.826,7.972-8.39-.076-4.368-3.469-7.884-7.689-8.118-3.344-14.685-15.473-25.728-30.864-25.489-11.571.179-15.685,6.491-21.153,15.94-2.894,5-2.056,34.323,1.846,40.615,2.61,4.207,7.281,7.03,14.81,8.268l.365,17.081s-.986,16.491,16.937,15.624c18.18-.879,17.999-16.849,17.999-16.849,0,0-.527-36.479-.38-38.687.052,0,.103.006.155.006Z" fill="#fffdfd" stroke="#000" stroke-linecap="round" stroke-linejoin="round" stroke-width="1.5"></path>
        <path id="h_1_sh" d="m621.829,219.323l-14.944,16.975-.326-13.873s4.881.441,9.379-.854c4.498-1.295,5.89-2.248,5.89-2.248Z" stroke="#000" stroke-linecap="round" stroke-linejoin="round" stroke-width="1.5"></path>
        <path id="h_1-3" data-name="h_1" d="m633.045,154.613c-.087-.143-39.783,1.984-39.783,1.984l-7.928,26.249c12.613-3.611,17.954-10.165,20.172-15.703,3.842,4.142,10.337,8.975,20.112,9.74,9.896.775,11.317,7.9,11.373,8.202.037.2.18.365.372.43.096.032.198.038.294.018s.187-.065.262-.134c.03-.027,3.088-2.859,6.603-2.374,1.153.159-3.649-8.049-3.364-8.41,2.49-3.158-5.51-15.752-8.113-20.002Z" fill="#050607"></path>
        <path id="h_1-4" data-name="h_1" d="m588.37,181.873c10.456-3.735,15.106-9.659,17.137-14.73,3.842,4.142,10.337,8.975,20.112,9.74,9.896.775,11.317,7.9,11.373,8.202.037.2.18.365.372.43.096.032.198.038.294.018s.187-.065.262-.134c.03-.027,2.944-2.931,6.085-1.91" fill="none" stroke="#000" stroke-linecap="round" stroke-linejoin="round" stroke-width="1.5"></path>
        <g id="e_4_eye">
          <path d="m614.545,187.187l-.014-.141c.008-.207-.035-.399-.129-.578-.06-.186-.164-.347-.31-.483-.136-.146-.297-.25-.483-.31-.179-.094-.371-.137-.578-.129l-.399.054c-.254.071-.475.2-.662.386l-.235.304c-.136.234-.204.486-.205.757l.014.141c-.008.207.035.399.129.578.06.186.164.347.31.483.136.146.297.25.483.31.179.094.371.137.578.129l.399-.054c.254-.071.475-.2.662-.386l.235-.304c.136-.234.204-.486.205-.757h0Z"></path>
        </g>
        <g id="e_4_eye-2" data-name="e_4_eye">
          <path d="m597.109,188.414l-.014-.141c.008-.207-.035-.399-.129-.578-.06-.186-.164-.347-.31-.483-.136-.146-.297-.25-.483-.31-.179-.094-.371-.137-.578-.129l-.399.054c-.254.071-.475.2-.662.386l-.235.304c-.136.234-.204.486-.205.757l.014.141c-.008.207.035.399.129.578.06.186.164.347.31.483.136.146.297.25.483.31.179.094.371.137.578.129l.399-.054c.254-.071.475-.2.662-.386l.235-.304c.136-.234.204-.486.205-.757h0Z"></path>
        </g>
        <path id="e_4_st" d="m602.811,194.021l-.844,3.993c-.156.737.484,1.399,1.222,1.263l3.507-.644" fill="none" stroke="#000" stroke-linecap="round" stroke-linejoin="round" stroke-width="1.5"></path>
        <path id="e_4_st-2" data-name="e_4_st" d="m611.663,180.933s5.042-1.777,7.637,1.581" fill="none" stroke="#000" stroke-linecap="round" stroke-linejoin="round" stroke-width="1.5"></path>
        <path id="e_4_st-3" data-name="e_4_st" d="m617.469,202.363s-1.512,5.494-8.416,4.575" fill="none" stroke="#000" stroke-linecap="round" stroke-linejoin="round" stroke-width="1.5"></path>
        <path id="e_4_st-4" data-name="e_4_st" d="m592.068,182.965s3.889-3.176,7.644-1.223" fill="none" stroke="#000" stroke-linecap="round" stroke-linejoin="round" stroke-width="1.5"></path>
        <path id="bl" d="m688.697,371.195c-.43.1-1.3.24-1.3.24l.511,12.351-120.971-.251,3.57-73.15-55.15,55.41c-2.92,2.93-5.66,4.89-8.79,6.1-11.84,4.55-27.46-.65-33.84-12.74-1.67-3.14-4.11-11.16-.8-19.36l38.13-85.7,32.12,12.24,17.77-17.98c6.67-6.78,14.96-8.67,26.17-8.22l20.8-.27c-.02,2.42.6,16.05,16.94,15.27,15.23-.73,17.57-12.06,17.93-15.72l26.5-.34c2.32-.02,4.49.22,6.55.64v-.03c14.77,2.48,22.75,14.96,24.98,24.77l7.63,75.86.18.8c2.2,13.82-5.39,27.01-18.93,30.08Z"></path>
        <g id="ha">
          <path id="sk" d="m595.808,269.213c-.092-1.579-.245-3.125-.317-4.557-.207-4.086.219-7.237,1.704-7.462,4.016-.609,8.342,10.963,12.85,23.493l-8.877,10.01-5.36-21.485Z" fill="#fffdfd" stroke="#000" stroke-linecap="round" stroke-linejoin="round" stroke-width="1.5"></path>
          <path id="b" d="m600.334,289.118l-1.596-48.861c-.063-1.934-1.655-3.465-3.59-3.453l-20.029.12c-1.993.012-3.591,1.654-3.548,3.647l1.047,48.457c.042,1.922,1.598,3.466,3.52,3.493l20.578.284c2.037.028,3.684-1.651,3.617-3.686Z" fill="#050607" stroke="#000" stroke-linecap="round" stroke-linejoin="round" stroke-width="1.5"></path>
          <circle id="b-2" data-name="b" cx="593.778" cy="241.51" r="2.167" fill="#fff" stroke="#000" stroke-linecap="round" stroke-linejoin="round" stroke-width="1.5"></circle>
          <path id="b-3" data-name="b" d="m603.582,284.046l-3.208-15.391s-26.012-11.091-28.077-11.264c-2.628-.219-3.808,3.842-1.943,5.247,1.02.769,2.357,1.225,3.342,1.599-2.007-.778-3.361.474-3.977,1.954-1.126,2.708,2.297,4.144,2.689,4.351-3.19,0-4.442,3.494-1.402,5.573.201.137.606.324.84.434-.297.332-1.665.329-1.943,2.722-.245,2.103,2.022,3.039,3.033,3.702,1.197.785,25.706,15.569,25.706,15.569l4.941-14.495Z" fill="#fffdfd"></path>
          <path id="st" d="m574.128,264.407c-.991-.408-2.595-.88-3.774-1.769-1.865-1.405-.685-5.467,1.943-5.247,2.066.172,28.077,11.264,28.077,11.264" fill="none" stroke="#000" stroke-linecap="round" stroke-linejoin="round" stroke-width="1.5"></path>
          <path id="st-2" data-name="st" d="m584.123,268.973l-10.426-4.735c-2.008-.779-3.363.473-3.978,1.953-1.126,2.708,2.297,4.144,2.689,4.351-3.19,0-4.442,3.494-1.402,5.573.201.137.605.324.84.434-.297.332-1.665.329-1.943,2.722-.245,2.103,2.022,3.039,3.033,3.702,1.971,1.294,38.212,23.1,38.212,23.1" fill="none" stroke="#000" stroke-linecap="round" stroke-linejoin="round" stroke-width="1.5"></path>
          <line id="st-3" data-name="st" x1="572.071" y1="270.343" x2="582.386" y2="274.624" fill="#fff" stroke="#000" stroke-linecap="round" stroke-linejoin="round" stroke-width="1.5"></line>
          <line id="st-4" data-name="st" x1="571.554" y1="276.415" x2="580.86" y2="280.688" fill="#fff" stroke="#000" stroke-linecap="round" stroke-linejoin="round" stroke-width="1.5"></line>
        </g>
        <line id="st-5" data-name="st" x1="660.597" y1="302.837" x2="658.325" y2="288.777" fill="none" stroke="#fdfdff" stroke-linecap="round" stroke-linejoin="round" stroke-width="1.5"></line>
        <g id="ha-2" data-name="ha">
          <path id="sk-2" data-name="sk" d="m558.527,225.625c-1.5-.34-2.66.15-3.9,1.34-.09.08-.18.17-.27.28-.05.04-.11.09-.16.15-.01.02-.04.05-.06.07-.77-.85-1.55-1.56-2.16-1.87-.08-.05-.16-.08-.24-.11-.67-.23-1.4-.46-2.13-.67-.33-.1-.67-.19-1-.28-.39-.12-.78-.22-1.15-.31.29-.27.58-.54.87-.8,1.42-1.29,2.81-2.47,4.29-3.66.41-.34.83-.67,1.26-1,.78-.61,1.6-1.22,2.47-1.87.35-.26.72-.53,1.09-.8.31-.22.63-.45.96-.69,1.22-.88.46-3.4-1.25-3.06-3.66.73-12.78,4.39-21.99,13.89-.16.17-.34.36-.53.58-4.42,5.02-14.01,20.68-19.2,29.33h.02l28.89,11.01c1.47-4.46,8.54-25.72,10.28-28.98.45-.84.89-1.65,1.32-2.45.02-.03.03-.07.05-.1.05.02.09.03.13.04.15.05.29.08.43.11.02,0,.05.01.07.01.15.03.29.04.42.04.3,0,.57-.06.78-.18.38-.24.58-.69.52-1.35-.01-.08-.02-.16-.03-.23-.06-.4-.21-.87-.45-1.41-.05-.11-.1-.22-.16-.33v-.01c.02-.04.04-.07.06-.11.02-.04.04-.07.05-.11.12-.23.23-.46.33-.69.37-.77.68-1.5.92-2.15.12-.36.23-.7.31-1.01.37-1.44.2-2.39-.84-2.62Z" fill="#fffdfd"></path>
          <path id="st-6" data-name="st" d="m557.761,232.208c1.759-3.584,2.572-6.181.769-6.587-1.678-.377-2.923.274-4.331,1.778" fill="none" stroke="#000" stroke-linecap="round" stroke-linejoin="round" stroke-width="1.5"></path>
          <path id="st-7" data-name="st" d="m544.337,267.155c1.47-4.46,8.54-25.72,10.28-28.98.45-.84.89-1.65,1.32-2.45" fill="none" stroke="#000" stroke-linecap="round" stroke-linejoin="round" stroke-width="1.5"></path>
          <path id="st-8" data-name="st" d="m515.447,256.145c6.28-10.35,15.29-24.85,19.18-29.33.19-.22.37-.41.53-.58,9.21-9.5,18.33-13.16,21.99-13.89,1.71-.34,2.47,2.18,1.25,3.06-.33.24-.65.47-.96.69-.37.27-.74.54-1.09.8-.87.65-1.69,1.26-2.47,1.87-.43.34-.85.67-1.26,1-1.48,1.19-2.87,2.37-4.29,3.66-.24.21-.48.43-.72.65" fill="none" stroke="#000" stroke-linecap="round" stroke-linejoin="round" stroke-width="1.5"></path>
          <path id="st-9" data-name="st" d="m544.187,223.426s4.445.983,7.549,2.063c1.63.567,4.759,4.766,5.48,5.96,2.474,4.095.537,5.246-2.184,3.75-2.557-1.407-3.747-3.519-6.295-4.519" fill="none" stroke="#000" stroke-linecap="round" stroke-linejoin="round" stroke-width="1.5"></path>
          <path id="st-10" data-name="st" d="m540.23,227.445s5.066,1.539,8.072,2.978c1.557.745,4.142,4.772,4.573,6.098.661,2.035.541,3.154-.982,3.383-2.175.326-4.043-3.93-6.592-4.931-2.379-.933-9.061-2.823-9.061-2.823" fill="none" stroke="#000" stroke-linecap="round" stroke-linejoin="round" stroke-width="1.5"></path>
          <path id="st-11" data-name="st" d="m541.861,233.917c3.921,2.617,4.06,4.812,4.242,5.953.31,1.941-.935,2.651-2.238,1.91-1.733-.986-4.176-3.322-5.242-3.648-2.215-.678-5.97-.966-5.97-.966" fill="none" stroke="#000" stroke-linecap="round" stroke-linejoin="round" stroke-width="1.5"></path>
        </g>
        <polyline id="st-12" data-name="st" points="525.621 330.651 549.743 269.219 544.337 267.155" fill="none" stroke="#fdfdff" stroke-linecap="round" stroke-linejoin="round" stroke-width="1.5"></polyline>
        <line id="st-13" data-name="st" x1="570.51" y1="310.382" x2="571.399" y2="296.941" fill="none" stroke="#fdfdff" stroke-linecap="round" stroke-linejoin="round" stroke-width="1.5"></line>
        <path id="bl-2" data-name="bl" d="m688.699,371.199c-2.837.646-5.675.781-8.415.469-3.904-.445-7.587-2.041-10.746-4.377l-80.618-63.63,24.371-33.319,64.812,45.265"></path>
        <path id="b-4" data-name="b" d="m688.699,371.199c-2.837.646-5.675.781-8.415.469-3.904-.445-7.587-2.041-10.746-4.377l-80.618-63.63,24.371-33.319,64.812,45.265" fill="none" stroke="#fdfdff" stroke-linecap="round" stroke-linejoin="round" stroke-width="1.5"></path>
        <polygon id="sk-3" data-name="sk" points="286.994 490.626 236.631 518.628 256.826 548.325 307.661 524.045 286.994 490.626" fill="#fffdfd" stroke="#000" stroke-linecap="round" stroke-linejoin="round" stroke-width="1.5"></polygon>
        <path id="l" d="m233.637,564.863l-7.299-10.734c1.698-2.677,3.866-5.751,3.866-5.751l-8.211-.638-29.698-43.673s10.41-14.954,22.904,1.785c13.205,17.691,36.213,3.168,36.213,3.168l8.901,13.089-5.728,9.767,11.536-1.226,7.228,10.63-39.713,23.582Z" fill="#fff" stroke="#000" stroke-linecap="round" stroke-linejoin="round" stroke-width="1.5"></path>
        <path id="l-2" data-name="l" d="m624.236,454.25c-7.584-.125-99.795-3.925-139.363-3.982l-196.501,93.183-30.045-58.982,211.952-111.993s150.295,8.023,147.804,9.945l6.153,71.829" fill="#050607"></path>
        <path id="l-3" data-name="l" d="m617.061,439.591c-7.31-.121-93.241-5.35-134.874-5.778-2.929-.03-5.817.629-8.442,1.929l-192.548,93.051" fill="none" stroke="#fdfdff" stroke-linecap="round" stroke-linejoin="round" stroke-width="1.5"></path>
        <path id="st-14" data-name="st" d="m624.236,454.25c-7.584-.125-99.795-3.925-139.363-3.982l-196.501,93.183-30.045-58.982,211.952-111.993s150.295,8.023,147.804,9.945l6.153,71.829" fill="none" stroke="#000" stroke-linecap="round" stroke-linejoin="round" stroke-width="1.5"></path>
        <polygon id="sk-4" data-name="sk" points="374.188 482.763 346.666 536.388 382.579 536.388 409.714 491.477 374.188 482.763" fill="#fffdfd" stroke="#000" stroke-linecap="round" stroke-linejoin="round" stroke-width="1.5"></polygon>
        <path id="l-4" data-name="l" d="m382.215,564.863h-12.98c-1.259-2.91-2.582-6.431-2.582-6.431l-5.145,6.431h-52.813s-6.512-17.017,14.356-17.936c22.055-.971,29.237-24.887,29.237-24.887l14.335,1.485,4.856,10.228,5.473-9.228,13.578,1.145-8.314,39.194Z" fill="#fff" stroke="#000" stroke-linecap="round" stroke-linejoin="round" stroke-width="1.5"></path>
        <path id="l-5" data-name="l" d="m687.34,383.789l-51.237-1.012h0s-145.304-37.942-145.304-37.942c-24.053-7.966-43.941-5.939-58.686,14.981l-86.425,139.319,62.004,27.389,71.531-113.234,125.297,37.876c6.101,1.844,12.421,2.878,18.792,3.06.408.012.727.02.924.023,12.89.213,29.662-2.535,43.711-15.71,15.561-14.593,20.46-33.724,19.393-54.751Z" fill="#050607"></path>
        <path id="l-6" data-name="l" d="m395.675,521.216l74.505-121.421c1.961-3.214,5.855-4.683,9.45-3.566l118.63,36.881c6.101,1.844,40.605,12.301,61.232-8.326,10.904-10.904,13.597-25.672,13.515-41.137" fill="none" stroke="#fdfdff" stroke-linecap="round" stroke-linejoin="round" stroke-width="1.5"></path>
        <path id="st-15" data-name="st" d="m687.34,383.789l-51.237-1.012h0s-145.304-37.942-145.304-37.942c-24.053-7.966-43.941-5.939-58.686,14.981l-86.425,139.319,62.004,27.389,71.531-113.234,125.297,37.876c6.101,1.844,12.421,2.878,18.792,3.06.408.012.727.02.924.023,12.89.213,29.662-2.535,43.711-15.71,15.561-14.593,20.46-33.724,19.393-54.751Z" fill="none" stroke="#000" stroke-linecap="round" stroke-linejoin="round" stroke-width="1.5"></path>
      </g>
    </g>
  </g>
</svg>